<?xml version="1.0" standalone="no"?>
<!DOCTYPE svg PUBLIC "-//W3C//DTD SVG 20010904//EN"
 "http://www.w3.org/TR/2001/REC-SVG-20010904/DTD/svg10.dtd">
<svg version="1.0" xmlns="http://www.w3.org/2000/svg"
 width="1024.000000pt" height="1024.000000pt" viewBox="0 0 1024.000000 1024.000000"
 preserveAspectRatio="xMidYMid meet">

<g transform="translate(0.000000,1024.000000) scale(0.100000,-0.100000)"
fill="#000000" stroke="none">
<path d="M0 5120 l0 -5120 5120 0 5120 0 0 5120 0 5120 -5120 0 -5120 0 0
-5120z m5395 2989 c183 -23 400 -88 1131 -342 171 -60 260 -77 391 -77 l108 0
260 88 c143 49 293 101 334 116 123 45 226 34 267 -30 12 -17 23 -79 36 -201
20 -199 28 -234 68 -313 108 -214 313 -356 604 -419 54 -12 111 -28 126 -36
67 -35 89 -108 49 -159 -11 -14 -82 -68 -157 -118 -177 -120 -267 -209 -321
-320 -47 -95 -64 -181 -81 -408 -20 -249 -42 -328 -123 -436 -57 -75 -141
-142 -243 -193 -173 -86 -340 -130 -739 -196 -310 -52 -356 -63 -474 -114
-169 -73 -311 -181 -546 -416 -171 -172 -286 -302 -354 -403 -235 -348 -180
-672 201 -1186 33 -44 66 -95 74 -114 21 -51 18 -128 -7 -180 -26 -54 -70 -86
-219 -163 -104 -53 -126 -70 -235 -176 -165 -162 -267 -213 -426 -213 -147 0
-260 59 -429 224 -105 102 -125 117 -230 170 -144 72 -172 93 -204 158 -49 98
-32 169 72 306 95 125 160 229 222 357 89 183 105 244 105 400 0 116 -3 138
-28 210 -53 149 -138 271 -363 517 -203 222 -409 396 -570 480 -119 63 -235
95 -515 143 -402 69 -553 109 -724 190 -141 67 -244 157 -311 270 -31 55 -60
169 -68 275 -27 347 -38 409 -94 514 -51 97 -149 192 -314 303 -188 128 -211
159 -168 230 25 42 55 56 175 83 277 63 464 184 589 383 44 71 68 162 87 336
25 221 39 251 133 271 62 14 96 5 411 -105 338 -118 373 -127 492 -126 133 1
219 19 427 92 338 119 553 192 696 236 333 101 589 128 885 92z"/>
<path d="M2881 7244 c-180 -48 -319 -202 -339 -375 -18 -157 24 -286 125 -388
182 -181 469 -174 643 17 239 260 98 686 -249 752 -71 13 -114 12 -180 -6z"/>
<path d="M7170 7247 c-205 -47 -350 -230 -350 -442 0 -128 50 -244 143 -332
221 -209 567 -142 705 136 32 65 37 84 40 167 4 74 0 107 -17 163 -65 215
-306 357 -521 308z"/>
<path d="M3707 6340 c-142 -24 -225 -123 -247 -294 -15 -120 1 -213 54 -321
60 -120 124 -203 286 -369 496 -508 893 -774 1235 -826 344 -52 800 205 1365
770 205 204 337 375 382 493 29 77 39 176 27 264 -19 136 -66 215 -153 258
-80 39 -181 42 -471 14 -228 -22 -279 -23 -1035 -24 -743 0 -812 1 -1052 23
-270 23 -314 25 -391 12z"/>
</g>
</svg>
